# This file uses meters as units for non-parametric coordinates.

v -9.945011 -15.683746 0.611877
v -10.972786 -14.143372 5.648804
v -9.945011 2.882385 -0.646973
v -10.972786 1.072693 4.971313
v 9.945011 2.882385 -0.646973
v 10.972786 1.072693 4.971313
v 9.945011 -15.683746 0.611877
v 10.972786 -14.143372 5.648804
v -7.874680 2.854919 -1.058960
v -7.874680 -16.831970 0.274658
v -7.874680 -16.897583 5.834961
v 8.868313 2.854919 -1.058960
v 8.868313 -16.831970 0.274658
v 8.868313 -16.897583 5.834961
v -9.945011 5.972290 -0.953674
v -10.972786 2.574158 6.283569
v -7.874680 3.196716 6.826782
v -7.874680 5.667877 -1.248169
v -7.874680 -12.230681 8.345032
v -10.972786 -9.476471 8.158875
v 8.868313 3.196716 6.826782
v 8.868313 5.667877 -1.248169
v 8.868313 -12.230681 8.345032
v 10.972786 2.574158 6.283569
v 9.945011 5.972290 -0.953674
v 10.972786 -9.476471 8.158875
v -10.972786 1.779175 5.589294
v -9.945011 4.206085 -0.735474
v -7.874680 4.178619 -1.147461
v 8.868313 4.178619 -1.147461
v 9.945011 4.206085 -0.735474
v 10.972786 1.779175 5.589294
v 10.972786 -9.577179 6.669617
v 8.868313 -12.331389 6.855774
v -7.874680 -12.331389 6.855774
v -10.972786 -9.577179 6.669617
v -10.384464 1.365662 5.227661
v -9.972954 3.430939 -0.683594
v -7.452440 3.402710 -1.095581
v 8.392906 3.402710 -1.095581
v 9.972954 3.430939 -0.683594
v 10.384464 1.365662 5.227661
v 10.384464 -9.378052 6.047058
v 8.392906 -11.567688 6.195068
v -7.452440 -11.567688 6.195068
v -10.384464 -9.378052 6.047058
v -10.972786 6.227112 0.985718
v -7.874680 6.336212 1.080322
v 8.868313 6.336212 1.080322
v 10.972786 6.227112 0.985718
v 10.972786 4.206848 0.991821
v 11.003685 3.495026 0.970459
v 10.972786 2.990723 0.956726
v 10.972786 -15.575409 2.214050
v 8.868313 -18.329620 2.401733
v -7.874680 -18.329620 2.401733
v -10.972786 -15.575409 2.214050
v -10.972786 2.990723 0.956726
v -11.003685 3.495026 0.970459
v -10.972786 4.206848 0.991821
v -7.874680 5.440521 4.953003
v -10.972786 4.953766 4.528809
v -10.972786 4.007721 4.006958
v -10.384464 3.514862 3.735352
v -10.972786 3.166199 3.544617
v -10.972786 -15.399933 4.801941
v -7.874680 -18.154144 4.988098
v 8.868313 -18.154144 4.988098
v 10.972786 -15.399933 4.801941
v 10.972786 3.166199 3.544617
v 10.384464 3.514862 3.735352
v 10.972786 4.007721 4.006958
v 10.972786 4.953766 4.528809
v 8.868313 5.440521 4.953003
v -7.874680 -2.940369 8.180237
v -10.972786 -2.904510 7.875061
v -10.972786 -3.000641 6.771851
v -10.384464 -3.038788 6.278992
v -10.972786 -3.205109 5.799866
v -10.972786 -3.250122 4.687500
v -10.972786 -3.424835 2.101135
v -9.945011 -3.533936 0.497437
v -7.874680 -3.635406 0.090027
v 8.868313 -3.635406 0.090027
v 9.945011 -3.533936 0.497437
v 10.972786 -3.424835 2.101135
v 10.972786 -3.250122 4.687500
v 10.972786 -3.205109 5.799866
v 10.384464 -3.038788 6.278992
v 10.972786 -3.000641 6.771851
v 10.972786 -2.904510 7.875061
v 8.868313 -2.940369 8.180237
v 2.086639 -5.761719 8.270264
v -1.092923 -5.761719 8.270264
v -1.092923 -8.733368 8.316040
v 2.086639 -8.733368 8.316040
v 1.802540 -6.031036 8.700562
v -0.808865 -6.031036 8.700562
v -0.808865 -8.471680 8.737183
v 1.802540 -8.471680 8.737183
vt 0.199982 0.252101
vt 0.199982 0.252101
vt 0.199982 0.252101
vt 0.199982 0.252101
vt 0.199982 0.252101
vt 0.199982 0.252101
vt 0.199982 0.252101
vt 0.199982 0.252101
vt 0.199982 0.252101
vt 0.199982 0.252101
vt 0.199982 0.252101
vt 0.199982 0.252101
vt 0.199982 0.252101
vt 0.199982 0.252101
vt 0.199982 0.252101
vt 0.199982 0.252101
vt 0.199982 0.252101
vt 0.199982 0.252101
vt 0.199982 0.252101
vt 0.199982 0.252101
vt 0.199982 0.252101
vt 0.199982 0.252101
vt 0.199982 0.252101
vt 0.199982 0.252101
vt 0.199982 0.252101
vt 0.199982 0.252101
vt 0.199982 0.252101
vt 0.199982 0.252101
vt 0.199982 0.252101
vt 0.199982 0.252101
vt 0.199982 0.252101
vt 0.199982 0.252101
vt 0.199982 0.252101
vt 0.199982 0.252101
vt 0.199982 0.252101
vt 0.199982 0.252101
vt 0.199982 0.252101
vt 0.199982 0.252101
vt 0.199982 0.252101
vt 0.199982 0.252101
vt 0.199982 0.252101
vt 0.199982 0.252101
vt 0.199982 0.252101
vt 0.199982 0.252101
vt 0.199982 0.252101
vt 0.199982 0.252101
vt 0.199982 0.252101
vt 0.199982 0.252101
vt 0.199982 0.252101
vt 0.199982 0.252101
vt 0.199982 0.252101
vt 0.199982 0.252101
vt 0.199982 0.252101
vt 0.199982 0.252101
vt 0.199982 0.252101
vt 0.199982 0.252101
vt 0.199982 0.252101
vt 0.199982 0.252101
vt 0.199982 0.252101
vt 0.199982 0.252101
vt 0.199982 0.252101
vt 0.199982 0.252101
vt 0.199982 0.252101
vt 0.199982 0.252101
vt 0.199982 0.252101
vt 0.199982 0.252101
vt 0.199982 0.252101
vt 0.199982 0.252101
vt 0.199982 0.252101
vt 0.199982 0.252101
vt 0.199982 0.252101
vt 0.199982 0.252101
vt 0.199982 0.252101
vt 0.199982 0.252101
vt 0.199982 0.252101
vt 0.199982 0.252101
vt 0.199982 0.252101
vt 0.199982 0.252101
vt 0.199982 0.252101
vt 0.199982 0.252101
vt 0.199982 0.252101
vt 0.199982 0.252101
vt 0.199982 0.252101
vt 0.199982 0.252101
vt 0.199982 0.252101
vt 0.199982 0.252101
vt 0.199982 0.252101
vt 0.199982 0.252101
vt 0.199982 0.252101
vt 0.199982 0.252101
vt 0.199982 0.252101
vt 0.199982 0.252101
vt 0.199982 0.252101
vt 0.199982 0.252101
vt 0.199982 0.252101
vt 0.199982 0.252101
vt 0.199982 0.252101
vt 0.199982 0.252101
vt 0.199982 0.252101
vt 0.199982 0.252101
vt 0.199982 0.252101
vt 0.199982 0.252101
vt 0.199982 0.252101
vt 0.199982 0.252101
vt 0.199982 0.252101
vt 0.199982 0.252101
vt 0.199982 0.252101
vt 0.199982 0.252101
vt 0.199982 0.252101
vt 0.199982 0.252101
vt 0.199982 0.252101
vt 0.199982 0.252101
vt 0.199982 0.252101
vt 0.199982 0.252101
vt 0.199982 0.252101
vt 0.199982 0.252101
vt 0.199982 0.252101
vt 0.066109 0.198770
vt 0.066109 0.198770
vt 0.066109 0.198770
vt 0.066109 0.198770
vt 0.066109 0.198770
vt 0.066109 0.198770
vt 0.066109 0.198770
vt 0.066109 0.198770
vn -0.841964 -0.005048 -0.539511
vn -0.841964 -0.005048 -0.539511
vn -0.842420 -0.035857 -0.537627
vn -0.842422 -0.036955 -0.537550
vn 0.029059 0.978407 -0.204635
vn 0.029059 0.978407 -0.204635
vn 0.029059 0.978407 -0.204635
vn 0.029059 0.978407 -0.204635
vn 0.842422 -0.036955 -0.537550
vn 0.842420 -0.035857 -0.537627
vn 0.841964 -0.005048 -0.539511
vn 0.841964 -0.005048 -0.539511
vn -0.554462 -0.718228 -0.420381
vn -0.554462 -0.718228 -0.420381
vn -0.554462 -0.718228 -0.420381
vn -0.554462 -0.718228 -0.420381
vn -0.066388 0.028208 0.997395
vn -0.066388 0.028208 0.997395
vn -0.104429 0.120341 0.987225
vn -0.105812 0.123714 0.986660
vn -0.180374 -0.011605 -0.983530
vn -0.180374 -0.011605 -0.983530
vn -0.186538 -0.067827 -0.980104
vn -0.186252 -0.065095 -0.980343
vn -0.000000 0.961190 -0.275886
vn -0.000000 0.961190 -0.275886
vn -0.000000 0.961190 -0.275886
vn -0.000000 0.961190 -0.275886
vn -0.000000 -0.013989 -0.999902
vn -0.000000 -0.013989 -0.999902
vn -0.000000 -0.067587 -0.997713
vn -0.000000 -0.067587 -0.997713
vn -0.000000 -0.817658 -0.575704
vn -0.000000 -0.817658 -0.575704
vn -0.000000 -0.817658 -0.575704
vn -0.000000 -0.817658 -0.575704
vn 0.000000 0.015003 0.999887
vn 0.000000 0.015003 0.999887
vn 0.000000 0.015003 0.999887
vn 0.000000 0.015003 0.999887
vn -0.047500 0.978596 -0.200235
vn -0.047500 0.978596 -0.200235
vn -0.047500 0.978596 -0.200235
vn -0.047500 0.978596 -0.200235
vn 0.332547 -0.011127 -0.943021
vn 0.332547 -0.011127 -0.943021
vn 0.342280 -0.061221 -0.937601
vn 0.343161 -0.065989 -0.936956
vn 0.715106 -0.567287 -0.408422
vn 0.715106 -0.567287 -0.408422
vn 0.715106 -0.567287 -0.408422
vn 0.715106 -0.567287 -0.408422
vn 0.097482 0.028136 0.994840
vn 0.097482 0.028136 0.994840
vn 0.097482 0.028136 0.994840
vn 0.097482 0.028136 0.994840
vn -0.845314 -0.058787 -0.531025
vn -0.845314 -0.058787 -0.531025
vn -0.845315 -0.058787 -0.531025
vn -0.845314 -0.058787 -0.531025
vn -0.176685 -0.002210 -0.984265
vn -0.176685 -0.002210 -0.984265
vn -0.176685 -0.002210 -0.984265
vn -0.176685 -0.002210 -0.984265
vn -0.107285 -0.063794 0.992180
vn -0.107285 -0.063794 0.992180
vn -0.107285 -0.063794 0.992180
vn -0.107285 -0.063794 0.992180
vn -0.555825 0.039586 0.830356
vn -0.546515 -0.018559 0.837244
vn -0.546515 -0.018559 0.837244
vn -0.558243 0.057050 0.827713
vn -0.000000 -0.066703 -0.997773
vn -0.000000 -0.066703 -0.997773
vn -0.000000 -0.066703 -0.997773
vn -0.000000 -0.066703 -0.997773
vn 0.000000 -0.067410 0.997725
vn 0.000000 -0.067410 0.997725
vn 0.000000 -0.067410 0.997725
vn 0.000000 -0.067410 0.997725
vn 0.845315 -0.058787 -0.531025
vn 0.845315 -0.058787 -0.531025
vn 0.845315 -0.058787 -0.531025
vn 0.845315 -0.058787 -0.531025
vn 0.294669 0.056539 -0.953925
vn 0.294669 0.056539 -0.953925
vn 0.294669 0.056539 -0.953925
vn 0.294669 0.056539 -0.953925
vn 0.150808 -0.058242 0.986846
vn 0.150808 -0.058242 0.986846
vn 0.150808 -0.058242 0.986846
vn 0.150808 -0.058242 0.986846
vn 0.546515 -0.018559 0.837244
vn 0.555825 0.039586 0.830356
vn 0.558243 0.057050 0.827714
vn 0.546515 -0.018559 0.837244
vn -0.872776 -0.028865 -0.487267
vn -0.872776 -0.028865 -0.487267
vn -0.872776 -0.028865 -0.487267
vn -0.872776 -0.028865 -0.487267
vn -0.174885 -0.095992 -0.979899
vn -0.174885 -0.095992 -0.979899
vn -0.174885 -0.095992 -0.979899
vn -0.174885 -0.095992 -0.979899
vn -0.000000 -0.067469 -0.997721
vn -0.000000 -0.067469 -0.997721
vn -0.000000 -0.067469 -0.997721
vn -0.000000 -0.067469 -0.997721
vn 0.323209 -0.092262 -0.941819
vn 0.323209 -0.092262 -0.941819
vn 0.323209 -0.092262 -0.941819
vn 0.323209 -0.092262 -0.941819
vn 0.872776 -0.028865 -0.487267
vn 0.872776 -0.028865 -0.487267
vn 0.872776 -0.028865 -0.487267
vn 0.872776 -0.028865 -0.487267
vn 1.000000 0.000000 -0.000001
vn 1.000000 0.000000 -0.000000
vn 1.000000 0.000000 -0.000000
vn 1.000000 0.000000 -0.000001
vn 0.795260 -0.604887 0.040904
vn 0.795260 -0.604887 0.040904
vn 0.795260 -0.604887 0.040904
vn 0.795260 -0.604887 0.040904
vn 0.000000 -0.997721 0.067469
vn 0.000000 -0.997721 0.067469
vn 0.000000 -0.997721 0.067469
vn 0.000000 -0.997721 0.067469
vn -0.665255 -0.744915 0.050374
vn -0.665255 -0.744915 0.050374
vn -0.665255 -0.744915 0.050374
vn -0.665255 -0.744915 0.050374
vn -1.000000 0.000000 0.000000
vn -1.000000 0.000000 -0.000000
vn -1.000000 0.000000 -0.000000
vn -1.000000 0.000000 0.000000
vn -0.853741 0.023108 -0.520186
vn -0.853741 0.023108 -0.520186
vn -0.853741 0.023108 -0.520186
vn -0.853741 0.023108 -0.520186
vn -0.176877 -0.110390 -0.978023
vn -0.176877 -0.110390 -0.978023
vn -0.176877 -0.110390 -0.978023
vn -0.176877 -0.110390 -0.978023
vn -0.000000 -0.066714 -0.997772
vn -0.000000 -0.066714 -0.997772
vn -0.000000 -0.066714 -0.997772
vn -0.000000 -0.066714 -0.997772
vn 0.295780 -0.148456 -0.943650
vn 0.295780 -0.148456 -0.943650
vn 0.295780 -0.148456 -0.943650
vn 0.295780 -0.148456 -0.943650
vn 0.853741 0.023108 -0.520186
vn 0.853741 0.023108 -0.520186
vn 0.853741 0.023108 -0.520186
vn 0.853741 0.023108 -0.520186
vn 0.689202 0.018740 -0.724327
vn 0.665978 -0.064694 -0.743160
vn 0.666710 -0.062333 -0.742706
vn 0.689202 0.018740 -0.724327
vn 0.487766 -0.454498 -0.745330
vn 0.487766 -0.454498 -0.745330
vn 0.487766 -0.454498 -0.745329
vn 0.487766 -0.454498 -0.745330
vn -0.000000 -0.654269 -0.756262
vn -0.000000 -0.654269 -0.756262
vn -0.000000 -0.654269 -0.756262
vn -0.000000 -0.654269 -0.756262
vn -0.407732 -0.546752 -0.731312
vn -0.407732 -0.546752 -0.731312
vn -0.407732 -0.546752 -0.731312
vn -0.407732 -0.546752 -0.731312
vn -0.665978 -0.064694 -0.743160
vn -0.689202 0.018740 -0.724327
vn -0.689202 0.018740 -0.724327
vn -0.666710 -0.062333 -0.742706
vn -0.227246 0.601233 0.766079
vn -0.227246 0.601233 0.766079
vn -0.227246 0.601233 0.766079
vn -0.227246 0.601233 0.766079
vn 0.000000 0.640980 0.767558
vn 0.000000 0.640980 0.767558
vn 0.000000 0.640980 0.767558
vn 0.000000 0.640980 0.767558
vn 0.324893 0.583893 0.743985
vn 0.324893 0.583893 0.743985
vn 0.324893 0.583893 0.743985
vn 0.324893 0.583893 0.743985
vn 1.000000 0.000000 0.000001
vn 1.000000 0.000000 0.000001
vn 1.000000 0.000000 0.000001
vn 1.000000 0.000000 0.000001
vn 0.661951 -0.430798 -0.613379
vn 0.661951 -0.430798 -0.613379
vn 0.661951 -0.430798 -0.613379
vn 0.661951 -0.430798 -0.613379
vn 0.528238 0.481277 0.699526
vn 0.528238 0.481277 0.699526
vn 0.528238 0.481277 0.699526
vn 0.528238 0.481277 0.699526
vn 1.000000 0.000000 0.000000
vn 1.000000 0.000000 0.000000
vn 1.000000 0.000000 0.000000
vn 1.000000 0.000000 0.000000
vn 0.626962 -0.435392 0.646028
vn 0.626962 -0.435392 0.646028
vn 0.626962 -0.435392 0.646028
vn 0.626962 -0.435392 0.646028
vn 0.000000 -0.558876 0.829251
vn 0.000000 -0.558876 0.829251
vn 0.000000 -0.558876 0.829251
vn 0.000000 -0.558876 0.829251
vn -0.479672 -0.490385 0.727625
vn -0.479672 -0.490385 0.727625
vn -0.479672 -0.490385 0.727625
vn -0.479672 -0.490385 0.727625
vn -1.000000 0.000000 -0.000000
vn -1.000000 0.000000 -0.000000
vn -1.000000 0.000000 -0.000000
vn -1.000000 0.000000 -0.000000
vn -0.528238 0.481277 0.699526
vn -0.528238 0.481277 0.699526
vn -0.528238 0.481277 0.699526
vn -0.528238 0.481277 0.699526
vn -0.661951 -0.430798 -0.613379
vn -0.661951 -0.430798 -0.613379
vn -0.661951 -0.430798 -0.613379
vn -0.661951 -0.430798 -0.613379
vn -1.000000 0.000000 0.000001
vn -1.000000 0.000000 0.000001
vn -1.000000 0.000000 0.000001
vn -1.000000 0.000000 0.000001
vn -0.115034 0.953416 0.278864
vn -0.115034 0.953416 0.278864
vn -0.115034 0.953416 0.278864
vn -0.115034 0.953416 0.278864
vn -1.000000 0.000000 0.000000
vn -1.000000 0.000000 0.000000
vn -1.000000 0.000000 0.000000
vn -1.000000 0.000000 0.000000
vn -0.896650 -0.434972 0.082567
vn -0.896651 -0.434972 0.082567
vn -0.896651 -0.434972 0.082567
vn -0.896651 -0.434972 0.082567
vn -0.843012 0.532195 0.078102
vn -0.843012 0.532195 0.078102
vn -0.843012 0.532195 0.078102
vn -0.843012 0.532195 0.078102
vn -1.000000 0.000000 0.000000
vn -1.000000 0.000000 -0.000000
vn -1.000000 0.000000 -0.000000
vn -1.000000 0.000000 0.000000
vn -0.665262 -0.744899 0.050524
vn -0.665262 -0.744899 0.050524
vn -0.665262 -0.744899 0.050524
vn -0.665262 -0.744899 0.050524
vn 0.000000 -0.997706 0.067691
vn 0.000000 -0.997706 0.067691
vn 0.000000 -0.997706 0.067691
vn 0.000000 -0.997706 0.067691
vn 0.795265 -0.604872 0.041026
vn 0.795265 -0.604872 0.041026
vn 0.795265 -0.604872 0.041026
vn 0.795265 -0.604872 0.041026
vn 1.000000 0.000000 0.000000
vn 1.000000 0.000000 0.000000
vn 1.000000 0.000000 0.000000
vn 1.000000 0.000000 0.000000
vn 0.843012 0.532195 0.078102
vn 0.843012 0.532195 0.078102
vn 0.843012 0.532195 0.078102
vn 0.843012 0.532195 0.078102
vn 0.896651 -0.434972 0.082567
vn 0.896651 -0.434972 0.082567
vn 0.896651 -0.434972 0.082567
vn 0.896650 -0.434972 0.082567
vn 1.000000 0.000000 -0.000000
vn 1.000000 0.000000 -0.000000
vn 1.000000 0.000000 -0.000000
vn 1.000000 0.000000 -0.000000
vn 0.168054 0.946137 0.276735
vn 0.168054 0.946137 0.276735
vn 0.168054 0.946137 0.276735
vn 0.168054 0.946137 0.276736
vn 0.000000 0.974281 0.225336
vn 0.000000 0.974281 0.225336
vn 0.000000 0.974281 0.225336
vn 0.000000 0.974281 0.225336
vn -0.105812 0.123714 0.986660
vn -0.104429 0.120341 0.987225
vn -0.154127 0.242819 0.957749
vn -0.154127 0.242819 0.957749
vn -1.000000 0.000000 0.000001
vn -1.000000 0.000000 0.000000
vn -1.000000 0.000000 0.000000
vn -1.000000 0.000000 0.000001
vn -0.622956 -0.184878 -0.760096
vn -0.665978 -0.064694 -0.743160
vn -0.666710 -0.062333 -0.742706
vn -0.622956 -0.184878 -0.760096
vn -0.569876 0.173892 0.803120
vn -0.555825 0.039586 0.830356
vn -0.558243 0.057050 0.827713
vn -0.569876 0.173892 0.803120
vn -1.000000 0.000000 0.000000
vn -1.000000 0.000000 -0.000000
vn -1.000000 0.000000 -0.000000
vn -1.000000 0.000000 0.000000
vn -1.000000 0.000000 0.000000
vn -1.000000 0.000000 0.000000
vn -1.000000 0.000000 0.000000
vn -1.000000 0.000000 0.000000
vn -0.842422 -0.036955 -0.537550
vn -0.842420 -0.035857 -0.537627
vn -0.841041 -0.094993 -0.532565
vn -0.841041 -0.094993 -0.532565
vn -0.186252 -0.065095 -0.980343
vn -0.186538 -0.067827 -0.980104
vn -0.196386 -0.171544 -0.965404
vn -0.196386 -0.171544 -0.965404
vn -0.000000 -0.067587 -0.997713
vn -0.000000 -0.067587 -0.997713
vn -0.000000 -0.174320 -0.984689
vn -0.000000 -0.174320 -0.984689
vn 0.343161 -0.065989 -0.936956
vn 0.342280 -0.061221 -0.937601
vn 0.359390 -0.163262 -0.918795
vn 0.359390 -0.163262 -0.918795
vn 0.841041 -0.094993 -0.532565
vn 0.841041 -0.094993 -0.532565
vn 0.842420 -0.035857 -0.537627
vn 0.842422 -0.036955 -0.537550
vn 1.000000 0.000000 0.000000
vn 1.000000 0.000000 0.000000
vn 1.000000 0.000000 0.000000
vn 1.000000 0.000000 0.000000
vn 1.000000 0.000000 0.000000
vn 1.000000 0.000000 0.000000
vn 1.000000 0.000000 -0.000000
vn 1.000000 0.000000 -0.000000
vn 0.558243 0.057050 0.827714
vn 0.555825 0.039586 0.830356
vn 0.569876 0.173892 0.803120
vn 0.569876 0.173892 0.803120
vn 0.666710 -0.062333 -0.742706
vn 0.665978 -0.064694 -0.743160
vn 0.622957 -0.184878 -0.760095
vn 0.622957 -0.184878 -0.760096
vn 1.000000 0.000000 -0.000000
vn 1.000000 0.000000 -0.000000
vn 1.000000 0.000000 0.000001
vn 1.000000 0.000000 0.000001
vn 0.223817 0.239521 0.944741
vn 0.223817 0.239521 0.944741
vn 0.223817 0.239521 0.944741
vn 0.223817 0.239521 0.944741
vn 0.000000 0.215362 0.976534
vn 0.000000 0.215362 0.976534
vn 0.000000 0.215362 0.976534
vn 0.000000 0.215362 0.976534
vn 0.000000 0.031893 0.999491
vn 0.000000 0.031893 0.999491
vn 0.000000 0.031893 0.999491
vn 0.000000 0.031893 0.999491
vn -0.005355 0.017170 0.999838
vn -0.005355 0.017170 0.999838
vn -0.005355 0.017170 0.999838
vn -0.005355 0.017170 0.999838
vn 0.000000 0.008290 0.999966
vn 0.000000 0.008290 0.999966
vn 0.000000 0.008290 0.999966
vn 0.000000 0.008290 0.999966
vn 0.005355 0.017170 0.999838
vn 0.005355 0.017170 0.999838
vn 0.005355 0.017170 0.999838
vn 0.005355 0.017170 0.999838
vn 0.000000 0.847661 0.530538
vn 0.000000 0.847661 0.530538
vn 0.000000 0.847661 0.530538
vn 0.000000 0.847661 0.530538
vn -0.831765 0.008450 0.555063
vn -0.831765 0.008450 0.555063
vn -0.831765 0.008450 0.555063
vn -0.831765 0.008450 0.555063
vn 0.000000 -0.849379 0.527784
vn 0.000000 -0.849379 0.527784
vn 0.000000 -0.849379 0.527784
vn 0.000000 -0.849379 0.527784
vn 0.831728 0.008451 0.555120
vn 0.831728 0.008451 0.555120
vn 0.831728 0.008451 0.555120
vn 0.831728 0.008451 0.555120
s off
f 1/1/1 57/74/2 81/100/3 82/101/4
f 15/31/5 47/64/6 48/65/7 18/33/8
f 85/105/9 86/106/10 54/71/11 7/7/12
f 10/20/13 56/73/14 57/75/15 1/9/16
f 20/34/17 19/35/18 75/94/19 76/95/20
f 10/19/21 1/1/22 82/101/23 83/102/24
f 18/33/25 48/65/26 49/66/27 22/36/28
f 13/27/29 10/19/30 83/102/31 84/103/32
f 13/28/33 55/72/34 56/73/35 10/20/36
f 97/118/37 98/119/38 99/120/39 100/121/40
f 22/36/41 49/66/42 50/67/43 25/39/44
f 7/13/45 13/27/46 84/103/47 85/104/48
f 7/7/49 54/71/50 55/72/51 13/28/52
f 92/113/53 23/37/54 26/40/55 91/112/56
f 3/3/57 58/76/58 59/77/59 38/54/60
f 9/18/61 3/3/62 38/54/63 39/55/64
f 2/2/65 11/22/66 45/62/67 46/63/68
f 79/98/69 2/2/70 46/63/71 78/97/72
f 12/26/73 9/18/74 39/55/75 40/56/76
f 11/22/77 14/30/78 44/61/79 45/62/80
f 53/70/81 5/5/82 41/57/83 52/69/84
f 5/5/85 12/26/86 40/56/87 41/57/88
f 14/30/89 8/11/90 43/60/91 44/61/92
f 8/11/93 88/109/94 89/110/95 43/60/96
f 28/43/97 60/78/98 47/64/99 15/31/100
f 29/44/101 28/43/102 15/31/103 18/33/104
f 30/45/105 29/44/106 18/33/107 22/36/108
f 31/46/109 30/45/110 22/36/111 25/39/112
f 51/68/113 31/46/114 25/39/115 50/67/116
f 33/49/117 90/111/118 91/112/119 26/40/120
f 34/50/121 33/49/122 26/40/123 23/37/124
f 35/51/125 34/50/126 23/37/127 19/35/128
f 36/52/129 35/51/130 19/35/131 20/34/132
f 77/96/133 36/52/134 20/34/135 76/95/136
f 38/54/137 59/77/138 60/78/139 28/43/140
f 39/55/141 38/54/142 28/43/143 29/44/144
f 40/56/145 39/55/146 29/44/147 30/45/148
f 41/57/149 40/56/150 30/45/151 31/46/152
f 52/69/153 41/57/154 31/46/155 51/68/156
f 43/60/157 89/110/158 90/111/159 33/49/160
f 44/61/161 43/60/162 33/49/163 34/50/164
f 45/62/165 44/61/166 34/50/167 35/51/168
f 46/63/169 45/62/170 35/51/171 36/52/172
f 78/97/173 46/63/174 36/52/175 77/96/176
f 62/80/177 16/32/178 17/15/179 61/79/180
f 74/93/181 61/79/182 17/15/183 21/23/184
f 73/92/185 74/93/186 21/23/187 24/38/188
f 32/48/189 72/91/190 73/92/191 24/38/192
f 42/59/193 71/90/194 72/91/195 32/48/196
f 6/6/197 70/89/198 71/90/199 42/59/200
f 69/88/201 87/107/202 88/108/203 8/8/204
f 68/87/205 69/88/206 8/8/207 14/29/208
f 67/86/209 68/87/210 14/29/211 11/21/212
f 66/85/213 67/86/214 11/21/215 2/10/216
f 80/99/217 66/84/218 2/2/219 79/98/220
f 64/82/221 65/83/222 4/4/223 37/53/224
f 63/81/225 64/82/226 37/53/227 27/42/228
f 62/80/229 63/81/230 27/42/231 16/32/232
f 47/64/233 62/80/234 61/79/235 48/65/236
f 47/64/237 60/78/238 63/81/239 62/80/240
f 60/78/241 59/77/242 64/82/243 63/81/244
f 59/77/245 58/76/246 65/83/247 64/82/248
f 81/100/249 57/74/250 66/84/251 80/99/252
f 57/75/253 56/73/254 67/86/255 66/85/256
f 56/73/257 55/72/258 68/87/259 67/86/260
f 55/72/261 54/71/262 69/88/263 68/87/264
f 54/71/265 86/106/266 87/107/267 69/88/268
f 71/90/269 70/89/270 53/70/271 52/69/272
f 72/91/273 71/90/274 52/69/275 51/68/276
f 73/92/277 72/91/278 51/68/279 50/67/280
f 50/67/281 49/66/282 74/93/283 73/92/284
f 49/66/285 48/65/286 61/79/287 74/93/288
f 76/95/289 75/94/290 17/16/291 16/32/292
f 27/42/293 77/96/294 76/95/295 16/32/296
f 37/53/297 78/97/298 77/96/299 27/42/300
f 4/4/301 79/98/302 78/97/303 37/53/304
f 65/83/305 80/99/306 79/98/307 4/4/308
f 58/76/309 81/100/310 80/99/311 65/83/312
f 82/101/313 81/100/314 58/76/315 3/3/316
f 83/102/317 82/101/318 3/3/319 9/17/320
f 84/103/321 83/102/322 9/17/323 12/25/324
f 85/104/325 84/103/326 12/25/327 5/14/328
f 5/5/329 53/70/330 86/106/331 85/105/332
f 87/107/333 86/106/334 53/70/335 70/89/336
f 88/108/337 87/107/338 70/89/339 6/6/340
f 89/110/341 88/109/342 6/12/343 42/58/344
f 90/111/345 89/110/346 42/58/347 32/47/348
f 91/112/349 90/111/350 32/47/351 24/41/352
f 21/24/353 92/113/354 91/112/355 24/41/356
f 17/16/357 75/94/358 92/113/359 21/24/360
f 92/113/361 75/94/362 94/115/363 93/114/364
f 75/94/365 19/35/366 95/116/367 94/115/368
f 19/35/369 23/37/370 96/117/371 95/116/372
f 23/37/373 92/113/374 93/114/375 96/117/376
f 93/122/377 94/123/378 98/119/379 97/118/380
f 94/123/381 95/124/382 99/120/383 98/119/384
f 95/124/385 96/125/386 100/121/387 99/120/388
f 96/125/389 93/122/390 97/118/391 100/121/392
