# This file uses meters as units for non-parametric coordinates.

v 0.772472 0.800696 -1.309669
v -0.772472 0.800696 -1.309669
v -1.544933 0.800696 0.028290
v -0.772472 0.800696 1.366249
v 0.772472 0.800696 1.366249
v 1.544933 0.800696 0.028290
v 0.500000 7.233470 -0.837738
v -0.500000 7.233470 -0.837738
v -1.000000 7.233470 0.028290
v -0.500000 7.233470 0.894318
v 0.500000 7.233470 0.894318
v 1.000000 7.233470 0.028290
v 0.339462 11.949473 -1.284378
v -0.455826 11.949473 -0.678139
v -0.328445 11.949473 0.313713
v 0.594215 11.949473 0.699333
v 1.389496 11.949473 0.093102
v 1.262123 11.949473 -0.898758
v -0.421928 16.695919 -0.431480
v -0.663208 16.570812 0.291718
v -0.160057 16.599743 0.877258
v 0.584389 16.753773 0.739624
v 0.825691 16.878872 0.016449
v 0.322525 16.849949 -0.569115
v -0.099655 23.436352 0.037758
v 0.193588 23.456242 0.752251
v 0.959099 23.471233 0.855347
v 1.431389 23.466328 0.243965
v 1.138168 23.446438 -0.470520
v 0.372635 23.431454 -0.573624
v -0.347237 28.797565 1.348343
v -0.101982 28.817455 2.080696
v 0.655014 28.832447 2.234299
v 1.166779 28.827541 1.655556
v 0.921547 28.807652 0.923210
v 0.164536 28.792667 0.769600
v -0.328775 35.244785 0.729195
v 0.109710 35.156239 0.950409
v 0.522430 35.104797 0.674646
v 0.496685 35.141903 0.177660
v 0.058221 35.230450 -0.043563
v -0.354514 35.281895 0.232204
v 0.221870 40.544720 0.848114
v 0.440491 40.500561 0.958412
v 0.638863 42.342064 1.115761
v 0.646271 40.474926 0.820923
v 0.633430 40.493374 0.573128
v 0.414825 40.537525 0.462830
v 0.209038 40.563168 0.600327
v 0.492939 -0.266107 -0.825485
v -0.492939 -0.266107 -0.825485
v -0.985867 -0.266107 0.028290
v -0.492939 -0.266107 0.882065
v 0.492939 -0.266107 0.882065
v 0.985867 -0.266107 0.028290
v 0.862675 -6.946734 -1.465889
v -0.862675 -6.946734 -1.465889
v -1.725338 -6.946734 0.028290
v -0.862675 -6.946734 1.522469
v 0.862675 -6.946734 1.522469
v 1.725338 -6.946734 0.028290
v 0.613383 -8.372612 -1.034118
v -0.613383 -8.372612 -1.034118
v 0.000000 -8.372612 0.028290
v -1.226757 -8.372612 0.028290
v -0.613383 -8.372612 1.090697
v 0.613383 -8.372612 1.090697
v 1.226757 -8.372612 0.028290
v -1.044937 17.109823 1.106778
v -0.525834 17.612186 -0.136698
v 0.184601 17.746353 -0.333549
v 0.720561 17.773533 0.191710
v 0.312049 17.409294 1.250688
v -0.547260 17.054615 1.752385
v 1.652352 29.447811 1.239671
v 0.757249 29.642612 1.850731
v 0.040804 29.635445 1.747703
v -0.227211 29.628326 1.075555
v 0.221249 29.628380 0.506442
v 1.384360 29.440697 0.567529
v 1.853725 11.063526 -0.228320
v 0.550340 11.008976 0.665526
v -0.289683 11.008976 0.185978
v -0.294400 11.008976 -0.781273
v 0.540913 11.008976 -1.268982
v 1.849015 11.063526 -1.195577
vt 0.199130 0.276555
vt 0.199130 0.276555
vt 0.199130 0.276555
vt 0.199130 0.276555
vt 0.199130 0.276555
vt 0.199130 0.276555
vt 0.199130 0.276555
vt 0.199130 0.276555
vt 0.199130 0.276555
vt 0.199130 0.276555
vt 0.199130 0.276555
vt 0.199130 0.276555
vt 0.199130 0.276555
vt 0.199130 0.276555
vt 0.199130 0.276555
vt 0.199130 0.276555
vt 0.199130 0.276555
vt 0.199130 0.276555
vt 0.199130 0.276555
vt 0.199130 0.276555
vt 0.199130 0.276555
vt 0.199130 0.276555
vt 0.199130 0.276555
vt 0.199130 0.276555
vt 0.199130 0.276555
vt 0.199130 0.276555
vt 0.199130 0.276555
vt 0.199130 0.276555
vt 0.199130 0.276555
vt 0.199130 0.276555
vt 0.199130 0.276555
vt 0.199130 0.276555
vt 0.199130 0.276555
vt 0.199130 0.276555
vt 0.199130 0.276555
vt 0.199130 0.276555
vt 0.199130 0.276555
vt 0.199130 0.276555
vt 0.199130 0.276555
vt 0.199130 0.276555
vt 0.199130 0.276555
vt 0.199130 0.276555
vt 0.199130 0.276555
vt 0.199130 0.276555
vt 0.199130 0.276555
vt 0.199130 0.276555
vt 0.199130 0.276555
vt 0.199130 0.276555
vt 0.199130 0.276555
vt 0.199130 0.276555
vt 0.199130 0.276555
vt 0.199130 0.276555
vt 0.199130 0.276555
vt 0.199130 0.276555
vt 0.199130 0.276555
vt 0.199130 0.276555
vt 0.199130 0.276555
vt 0.199130 0.276555
vt 0.199130 0.276555
vt 0.199130 0.276555
vt 0.199130 0.276555
vt 0.199130 0.276555
vt 0.199130 0.276555
vt 0.199130 0.276555
vt 0.199130 0.276555
vt 0.199130 0.276555
vt 0.199130 0.276555
vt 0.199130 0.276555
vt 0.199130 0.276555
vt 0.199130 0.276555
vt 0.199130 0.276555
vt 0.199130 0.276555
vt 0.199130 0.276555
vt 0.199130 0.276555
vt 0.199130 0.276555
vt 0.199130 0.276555
vt 0.199130 0.276555
vt 0.199130 0.276555
vt 0.199130 0.276555
vt 0.199130 0.276555
vt 0.199130 0.276555
vt 0.199130 0.276555
vt 0.199130 0.276555
vt 0.199130 0.276555
vt 0.199130 0.276555
vt 0.199130 0.276555
vt 0.199130 0.276555
vt 0.199130 0.276555
vt 0.199130 0.276555
vt 0.199130 0.276555
vt 0.199130 0.276555
vt 0.199130 0.276555
vt 0.199130 0.276555
vt 0.199130 0.276555
vt 0.199130 0.276555
vt 0.199130 0.276555
vt 0.199130 0.276555
vt 0.199130 0.276555
vt 0.199130 0.276555
vt 0.199130 0.276555
vn 0.000000 0.073167 -0.997320
vn 0.000000 0.073167 -0.997320
vn 0.000000 0.073167 -0.997320
vn 0.000000 0.073167 -0.997320
vn -0.863706 0.073167 -0.498657
vn -0.863706 0.073167 -0.498656
vn -0.863706 0.073167 -0.498656
vn -0.863706 0.073167 -0.498656
vn -0.863706 0.073167 0.498656
vn -0.863706 0.073167 0.498656
vn -0.863706 0.073167 0.498656
vn -0.863706 0.073167 0.498656
vn 0.000000 0.073167 0.997320
vn 0.000000 0.073167 0.997320
vn 0.000000 0.073167 0.997320
vn 0.000000 0.073167 0.997320
vn 0.863706 0.073167 0.498656
vn 0.863706 0.073167 0.498656
vn 0.863706 0.073167 0.498656
vn 0.863706 0.073167 0.498656
vn 0.863706 0.073167 -0.498656
vn 0.863706 0.073167 -0.498657
vn 0.863706 0.073167 -0.498656
vn 0.863706 0.073167 -0.498656
vn 0.000000 -1.000000 0.000000
vn 0.000000 -1.000000 0.000000
vn 0.000000 -1.000000 0.000000
vn 0.000000 -1.000000 0.000000
vn 0.000000 -1.000000 0.000000
vn 0.000000 -1.000000 0.000000
vn 0.000000 -1.000000 0.000001
vn 0.000000 -1.000000 0.000001
vn 0.000000 -1.000000 0.000001
vn 0.000000 -1.000000 0.000000
vn 0.000000 -1.000000 0.000000
vn 0.000000 -1.000000 0.000000
vn 0.000000 -1.000000 0.000000
vn 0.000000 -1.000000 0.000000
vn 0.000000 -1.000000 0.000000
vn 0.000000 -1.000000 -0.000001
vn 0.000000 -1.000000 -0.000001
vn 0.000000 -1.000000 -0.000001
vn -0.454630 -0.027096 0.890268
vn -0.454630 -0.027096 0.890268
vn -0.454630 -0.027096 0.890268
vn 0.539710 -0.129219 0.831875
vn 0.539710 -0.129219 0.831875
vn 0.539710 -0.129219 0.831875
vn 0.998634 0.011993 -0.050854
vn 0.998634 0.011993 -0.050854
vn 0.998634 0.011993 -0.050854
vn 0.475783 0.246433 -0.844335
vn 0.475783 0.246433 -0.844335
vn 0.475783 0.246433 -0.844335
vn -0.489950 0.349755 -0.798512
vn -0.489950 0.349755 -0.798512
vn -0.489950 0.349755 -0.798512
vn -0.974105 0.216089 0.066529
vn -0.974105 0.216089 0.066529
vn -0.974105 0.216089 0.066529
vn -0.256622 -0.039553 -0.965702
vn -0.256622 -0.039553 -0.965702
vn -0.325844 -0.046409 -0.944284
vn -0.317166 -0.045554 -0.947275
vn -0.957994 0.123542 -0.258814
vn -0.957994 0.123542 -0.258814
vn -0.979380 0.071662 -0.188891
vn -0.976837 0.079023 -0.198858
vn -0.698329 0.169377 0.695448
vn -0.698329 0.169377 0.695448
vn -0.647746 0.114014 0.753277
vn -0.659270 0.126172 0.741244
vn 0.360227 0.051641 0.931434
vn 0.360227 0.051641 0.931434
vn 0.404991 0.037252 0.913561
vn 0.400215 0.038807 0.915599
vn 0.947056 -0.193958 0.255862
vn 0.947056 -0.193958 0.255862
vn 0.979511 -0.037937 0.197787
vn 0.979469 -0.038295 0.197926
vn 0.453281 -0.239862 -0.858489
vn 0.453281 -0.239861 -0.858489
vn 0.404792 -0.137711 -0.903980
vn 0.415930 -0.160265 -0.895163
vn -0.789768 0.037458 -0.612260
vn -0.789768 0.037458 -0.612260
vn -0.789768 0.037458 -0.612260
vn -0.789768 0.037458 -0.612261
vn -0.926166 -0.065322 0.371415
vn -0.926166 -0.065322 0.371415
vn -0.926166 -0.065322 0.371415
vn -0.926166 -0.065322 0.371415
vn -0.141369 -0.060736 0.988092
vn -0.141369 -0.060736 0.988092
vn -0.141369 -0.060736 0.988092
vn -0.141369 -0.060736 0.988092
vn 0.785450 0.048594 0.617015
vn 0.785450 0.048594 0.617015
vn 0.785450 0.048593 0.617015
vn 0.785450 0.048594 0.617015
vn 0.917140 0.149775 -0.369352
vn 0.917140 0.149775 -0.369352
vn 0.917140 0.149775 -0.369352
vn 0.917140 0.149775 -0.369352
vn 0.132614 0.143601 -0.980710
vn 0.132614 0.143601 -0.980710
vn 0.132614 0.143601 -0.980710
vn 0.132614 0.143601 -0.980710
vn -0.929170 -0.029031 -0.368511
vn -0.929170 -0.029031 -0.368511
vn -0.929170 -0.029031 -0.368511
vn -0.929170 -0.029031 -0.368511
vn -0.411016 -0.855156 0.315871
vn -0.411016 -0.855156 0.315871
vn -0.411016 -0.855156 0.315871
vn -0.411016 -0.855156 0.315871
vn 0.453736 -0.577622 0.678584
vn 0.453736 -0.577622 0.678584
vn 0.453736 -0.577622 0.678584
vn 0.453736 -0.577622 0.678584
vn 0.931146 0.068134 0.358225
vn 0.931146 0.068134 0.358225
vn 0.931146 0.068134 0.358226
vn 0.931146 0.068134 0.358225
vn 0.701091 0.248453 -0.668388
vn 0.701091 0.248453 -0.668388
vn 0.701091 0.248453 -0.668388
vn 0.701091 0.248453 -0.668388
vn -0.262232 0.238589 -0.935045
vn -0.262232 0.238589 -0.935045
vn -0.262232 0.238589 -0.935045
vn -0.262232 0.238589 -0.935045
vn -0.927683 -0.132871 0.348925
vn -0.927683 -0.132871 0.348925
vn -0.927683 -0.132871 0.348925
vn -0.927683 -0.132871 0.348925
vn -0.156187 -0.250013 0.955562
vn -0.156187 -0.250013 0.955562
vn -0.156187 -0.250013 0.955562
vn -0.156187 -0.250013 0.955562
vn 0.764204 -0.124184 0.632906
vn 0.764204 -0.124184 0.632906
vn 0.764204 -0.124184 0.632906
vn 0.764204 -0.124184 0.632906
vn 0.927685 0.132919 -0.348902
vn 0.927685 0.132919 -0.348902
vn 0.927685 0.132919 -0.348902
vn 0.927685 0.132919 -0.348902
vn 0.156190 0.250093 -0.955541
vn 0.156190 0.250093 -0.955541
vn 0.156190 0.250093 -0.955541
vn 0.156190 0.250093 -0.955541
vn -0.764204 0.124168 -0.632909
vn -0.764204 0.124168 -0.632909
vn -0.764204 0.124168 -0.632909
vn -0.764204 0.124168 -0.632909
vn -0.907397 0.264608 0.326516
vn -0.907398 0.264608 0.326516
vn -0.816087 0.104704 0.568365
vn -0.805654 0.091646 0.585254
vn -0.161988 0.417821 0.893972
vn -0.161988 0.417821 0.893972
vn 0.101671 0.221423 0.969863
vn 0.098402 0.224070 0.969593
vn 0.650788 0.148696 0.744557
vn 0.650788 0.148696 0.744557
vn 0.770093 0.207841 0.603125
vn 0.764806 0.205063 0.610755
vn 0.696481 -0.675710 -0.241515
vn 0.696481 -0.675710 -0.241515
vn 0.808296 -0.024367 -0.588272
vn 0.816963 -0.083898 -0.570555
vn 0.065272 -0.406970 -0.911106
vn 0.065272 -0.406970 -0.911106
vn -0.123456 -0.140319 -0.982379
vn -0.118207 -0.148227 -0.981863
vn -0.761355 -0.123918 -0.636383
vn -0.761355 -0.123918 -0.636383
vn -0.901113 -0.086004 -0.424969
vn -0.908500 -0.083209 -0.409517
vn -0.446039 0.026268 0.894628
vn -0.446039 0.026268 0.894628
vn -0.446039 0.026268 0.894628
vn -0.446039 0.026268 0.894628
vn 0.552151 -0.035423 0.832992
vn 0.552151 -0.035423 0.832992
vn 0.552151 -0.035423 0.832992
vn 0.552151 -0.035423 0.832992
vn 0.998344 -0.021570 -0.053330
vn 0.998344 -0.021570 -0.053330
vn 0.998344 -0.021570 -0.053330
vn 0.998344 -0.021570 -0.053330
vn 0.458449 0.053840 -0.887088
vn 0.458449 0.053840 -0.887088
vn 0.458449 0.053840 -0.887088
vn 0.458449 0.053840 -0.887088
vn -0.541790 0.115840 -0.832493
vn -0.541790 0.115840 -0.832493
vn -0.541790 0.115840 -0.832493
vn -0.541790 0.115840 -0.832493
vn -0.993047 0.101850 0.059029
vn -0.993047 0.101850 0.059029
vn -0.993047 0.101850 0.059029
vn -0.993047 0.101850 0.059029
vn 0.000000 -0.413289 -0.910600
vn 0.000000 -0.413289 -0.910600
vn 0.000000 -0.413289 -0.910600
vn 0.000000 -0.413289 -0.910600
vn -0.788608 -0.413279 -0.455299
vn -0.788608 -0.413279 -0.455299
vn -0.788608 -0.413279 -0.455299
vn -0.788608 -0.413280 -0.455299
vn -0.788608 -0.413279 0.455299
vn -0.788608 -0.413279 0.455299
vn -0.788608 -0.413279 0.455299
vn -0.788608 -0.413279 0.455299
vn 0.000000 -0.413289 0.910600
vn 0.000000 -0.413289 0.910600
vn 0.000000 -0.413289 0.910600
vn 0.000000 -0.413289 0.910600
vn 0.788608 -0.413279 0.455299
vn 0.788608 -0.413279 0.455299
vn 0.788608 -0.413279 0.455299
vn 0.788608 -0.413279 0.455299
vn 0.788608 -0.413279 -0.455299
vn 0.788608 -0.413279 -0.455299
vn 0.788608 -0.413280 -0.455299
vn 0.788608 -0.413279 -0.455299
vn 0.000000 0.095422 -0.995437
vn 0.000000 0.095422 -0.995437
vn 0.000000 0.095422 -0.995437
vn 0.000000 0.095422 -0.995437
vn -0.862074 0.095422 -0.497718
vn -0.862074 0.095422 -0.497718
vn -0.862074 0.095422 -0.497718
vn -0.862074 0.095422 -0.497718
vn -0.862074 0.095422 0.497718
vn -0.862074 0.095422 0.497718
vn -0.862074 0.095422 0.497718
vn -0.862074 0.095422 0.497718
vn 0.000000 0.095422 0.995437
vn 0.000000 0.095422 0.995437
vn 0.000000 0.095422 0.995437
vn 0.000000 0.095422 0.995437
vn 0.862074 0.095422 0.497718
vn 0.862074 0.095422 0.497718
vn 0.862074 0.095422 0.497718
vn 0.862074 0.095422 0.497718
vn 0.862074 0.095422 -0.497718
vn 0.862074 0.095422 -0.497718
vn 0.862074 0.095422 -0.497718
vn 0.862074 0.095422 -0.497718
vn 0.000000 -0.289815 -0.957083
vn 0.000000 -0.289815 -0.957083
vn 0.000000 -0.289815 -0.957083
vn 0.000000 -0.289815 -0.957083
vn -0.828857 -0.289821 -0.478538
vn -0.828857 -0.289821 -0.478538
vn -0.828857 -0.289821 -0.478538
vn -0.828858 -0.289821 -0.478538
vn -0.828857 -0.289821 0.478538
vn -0.828858 -0.289821 0.478538
vn -0.828858 -0.289821 0.478538
vn -0.828857 -0.289821 0.478538
vn 0.000000 -0.289815 0.957083
vn 0.000000 -0.289815 0.957083
vn 0.000000 -0.289815 0.957083
vn 0.000000 -0.289815 0.957083
vn 0.828857 -0.289821 0.478538
vn 0.828857 -0.289821 0.478538
vn 0.828857 -0.289821 0.478538
vn 0.828858 -0.289821 0.478538
vn 0.828857 -0.289821 -0.478538
vn 0.828858 -0.289821 -0.478538
vn 0.828858 -0.289821 -0.478538
vn 0.828857 -0.289821 -0.478538
vn -0.987684 0.133899 -0.080938
vn -0.987684 0.133899 -0.080938
vn -0.987684 0.133899 -0.080938
vn -0.987684 0.133899 -0.080938
vn -0.565923 0.025503 -0.824064
vn -0.565923 0.025503 -0.824064
vn -0.565923 0.025503 -0.824064
vn -0.565923 0.025503 -0.824063
vn 0.435318 -0.094339 -0.895320
vn 0.435318 -0.094339 -0.895321
vn 0.435318 -0.094339 -0.895321
vn 0.435318 -0.094339 -0.895320
vn 0.991441 -0.124166 0.040344
vn 0.991441 -0.124166 0.040344
vn 0.991441 -0.124166 0.040344
vn 0.991441 -0.124166 0.040344
vn 0.644145 -0.018887 0.764670
vn 0.644145 -0.018887 0.764670
vn 0.644145 -0.018887 0.764670
vn 0.644145 -0.018887 0.764670
vn -0.496132 0.189784 0.847252
vn -0.496132 0.189784 0.847252
vn -0.496132 0.189784 0.847252
vn -0.496132 0.189784 0.847252
vn 0.764806 0.205063 0.610755
vn 0.770093 0.207841 0.603125
vn 0.783008 0.214706 0.583781
vn 0.783008 0.214706 0.583781
vn 0.098402 0.224070 0.969593
vn 0.101671 0.221423 0.969863
vn 0.155606 0.176967 0.971838
vn 0.155606 0.176967 0.971838
vn -0.805654 0.091646 0.585254
vn -0.816087 0.104704 0.568365
vn -0.780131 0.061643 0.622572
vn -0.780131 0.061643 0.622572
vn -0.908500 -0.083209 -0.409517
vn -0.901113 -0.086004 -0.424969
vn -0.925991 -0.076017 -0.369814
vn -0.925991 -0.076017 -0.369814
vn -0.118207 -0.148227 -0.981863
vn -0.123456 -0.140319 -0.982379
vn -0.149315 -0.100917 -0.983626
vn -0.149315 -0.100917 -0.983626
vn 0.816963 -0.083898 -0.570555
vn 0.808296 -0.024367 -0.588272
vn 0.785398 0.080315 -0.613758
vn 0.785398 0.080315 -0.613758
vn 0.400215 0.038807 0.915599
vn 0.404991 0.037252 0.913561
vn 0.581749 -0.024234 0.813007
vn 0.581749 -0.024234 0.813007
vn -0.659270 0.126172 0.741244
vn -0.647746 0.114014 0.753277
vn -0.439348 -0.075680 0.895123
vn -0.439348 -0.075680 0.895123
vn -0.976837 0.079023 -0.198858
vn -0.979380 0.071662 -0.188891
vn -0.991264 -0.113701 0.066838
vn -0.991264 -0.113701 0.066838
vn -0.317166 -0.045554 -0.947275
vn -0.325844 -0.046409 -0.944284
vn -0.555812 -0.068582 -0.828474
vn -0.555812 -0.068582 -0.828474
vn 0.415930 -0.160265 -0.895163
vn 0.404792 -0.137711 -0.903980
vn 0.190787 0.229412 -0.954448
vn 0.190787 0.229412 -0.954448
vn 0.979469 -0.038295 0.197926
vn 0.979511 -0.037937 0.197787
vn 0.849744 0.524073 -0.057289
vn 0.849744 0.524073 -0.057289
s off
f 1/7/1 2/8/2 8/15/3 7/14/4
f 2/8/5 3/9/6 9/16/7 8/15/8
f 3/9/9 4/10/10 10/17/11 9/16/12
f 4/10/13 5/11/14 11/18/15 10/17/16
f 5/11/17 6/12/18 12/19/19 11/18/20
f 6/12/21 1/13/22 7/20/23 12/19/24
f 63/77/25 62/78/26 64/27/27
f 65/79/28 63/77/29 64/27/30
f 66/80/31 65/79/32 64/27/33
f 67/81/34 66/80/35 64/27/36
f 68/82/37 67/81/38 64/27/39
f 62/78/40 68/82/41 64/27/42
f 43/59/43 44/60/44 45/28/45
f 44/60/46 46/61/47 45/28/48
f 46/61/49 47/62/50 45/28/51
f 47/62/52 48/63/53 45/28/54
f 48/63/55 49/64/56 45/28/57
f 49/64/58 43/59/59 45/28/60
f 7/25/61 8/24/62 84/98/63 85/99/64
f 8/24/65 9/23/66 83/97/67 84/98/68
f 9/23/69 10/22/70 82/96/71 83/97/72
f 10/22/73 11/21/74 81/95/75 82/96/76
f 11/21/77 12/26/78 86/100/79 81/95/80
f 12/26/81 7/25/82 85/99/83 86/100/84
f 13/29/85 14/30/86 20/36/87 19/35/88
f 14/30/89 15/31/90 21/37/91 20/36/92
f 15/31/93 16/32/94 22/38/95 21/37/96
f 16/32/97 17/33/98 23/39/99 22/38/100
f 17/33/101 18/34/102 24/40/103 23/39/104
f 18/34/105 13/29/106 19/35/107 24/40/108
f 19/35/109 20/36/110 69/83/111 70/84/112
f 20/36/113 21/37/114 74/88/115 69/83/116
f 21/37/117 22/38/118 73/87/119 74/88/120
f 22/38/121 23/39/122 72/86/123 73/87/124
f 23/39/125 24/40/126 71/85/127 72/86/128
f 24/40/129 19/35/130 70/84/131 71/85/132
f 25/41/133 26/42/134 32/48/135 31/47/136
f 26/42/137 27/43/138 33/49/139 32/48/140
f 27/43/141 28/44/142 34/50/143 33/49/144
f 28/44/145 29/45/146 35/51/147 34/50/148
f 29/45/149 30/46/150 36/52/151 35/51/152
f 30/46/153 25/41/154 31/47/155 36/52/156
f 31/47/157 32/48/158 77/91/159 78/92/160
f 32/48/161 33/49/162 76/90/163 77/91/164
f 33/49/165 34/50/166 75/89/167 76/90/168
f 34/50/169 35/51/170 80/94/171 75/89/172
f 35/51/173 36/52/174 79/93/175 80/94/176
f 36/52/177 31/47/178 78/92/179 79/93/180
f 37/53/181 38/54/182 44/60/183 43/59/184
f 38/54/185 39/55/186 46/61/187 44/60/188
f 39/55/189 40/56/190 47/62/191 46/61/192
f 40/56/193 41/57/194 48/63/195 47/62/196
f 41/57/197 42/58/198 49/64/199 48/63/200
f 42/58/201 37/53/202 43/59/203 49/64/204
f 2/2/205 1/1/206 50/66/207 51/65/208
f 3/3/209 2/2/210 51/65/211 52/67/212
f 4/4/213 3/3/214 52/67/215 53/68/216
f 5/5/217 4/4/218 53/68/219 54/69/220
f 6/6/221 5/5/222 54/69/223 55/70/224
f 1/1/225 6/6/226 55/70/227 50/66/228
f 51/65/229 50/66/230 56/72/231 57/71/232
f 52/67/233 51/65/234 57/71/235 58/73/236
f 53/68/237 52/67/238 58/73/239 59/74/240
f 54/69/241 53/68/242 59/74/243 60/75/244
f 55/70/245 54/69/246 60/75/247 61/76/248
f 50/66/249 55/70/250 61/76/251 56/72/252
f 57/71/253 56/72/254 62/78/255 63/77/256
f 58/73/257 57/71/258 63/77/259 65/79/260
f 59/74/261 58/73/262 65/79/263 66/80/264
f 60/75/265 59/74/266 66/80/267 67/81/268
f 61/76/269 60/75/270 67/81/271 68/82/272
f 56/72/273 61/76/274 68/82/275 62/78/276
f 70/84/277 69/83/278 26/42/279 25/41/280
f 71/85/281 70/84/282 25/41/283 30/46/284
f 72/86/285 71/85/286 30/46/287 29/45/288
f 73/87/289 72/86/290 29/45/291 28/44/292
f 74/88/293 73/87/294 28/44/295 27/43/296
f 69/83/297 74/88/298 27/43/299 26/42/300
f 76/90/301 75/89/302 40/56/303 39/55/304
f 77/91/305 76/90/306 39/55/307 38/54/308
f 78/92/309 77/91/310 38/54/311 37/53/312
f 79/93/313 78/92/314 37/53/315 42/58/316
f 80/94/317 79/93/318 42/58/319 41/57/320
f 75/89/321 80/94/322 41/57/323 40/56/324
f 82/96/325 81/95/326 17/33/327 16/32/328
f 83/97/329 82/96/330 16/32/331 15/31/332
f 84/98/333 83/97/334 15/31/335 14/30/336
f 85/99/337 84/98/338 14/30/339 13/29/340
f 86/100/341 85/99/342 13/29/343 18/34/344
f 81/95/345 86/100/346 18/34/347 17/33/348
